# xmcd
#
# Track frame offsets:
#	150
#	18604
#	36047
#	54877
#	74270
#	87176
#	102407
#	118163
#	132044
#	149413
#	164268
#
# Disc length: 2385 seconds
#
# Revision: 0
# Processed by: cddbd v1.5.1PL0 Copyright (c) Steve Scherf et al.
# Submitted via: dBpowerAMP V4.0
#
DISCID=93094f0b
DTITLE=George Strait - Somewhere Down In Texas
DYEAR=2005
DGENRE=Country
TTITLE0=If The Whole World Was A Honky Tonk
TTITLE1=Somewhere Down In Texas
TTITLE2=The Seashores Of Old Mexico
TTITLE3=You'll Be There
TTITLE4=High Tone Woman
TTITLE5=Good News, Bad News (Duet With Lee Ann Womack)
TTITLE6=Oh, What A Perfect Day
TTITLE7=Texas
TTITLE8=Ready For The End Of The World
TTITLE9=She Let Herself Go
TTITLE10=By The Light Of A Burning Bridge
EXTD=
EXTT0=
EXTT1=
EXTT2=
EXTT3=
EXTT4=
EXTT5=
EXTT6=
EXTT7=
EXTT8=
EXTT9=
EXTT10=
PLAYORDER=
